<?xml version="1.0" encoding="UTF-8"?>
<svg id="DeepL_Official_Logo" data-name="DeepL Official Logo" xmlns="http://www.w3.org/2000/svg" version="1.1" viewBox="0 0 661.9 300.3">
  <defs>
    <style>
      .cls-1, .cls-2 {
        fill: #0f2b46;
        stroke-width: 0px;
      }

      .cls-2 {
        fill-rule: evenodd;
      }
    </style>
  </defs>
  <path class="cls-1" d="M262.4,105.6h32.1c7.8,0,14.8,1.5,20.9,4.6,6.1,3,10.8,7.3,14.2,12.8,3.4,5.5,5,11.8,5,19.1s-1.7,13.6-5,19.2c-3.4,5.5-8.1,9.8-14.2,12.8-6.1,3-13,4.5-20.9,4.5h-32.1v-72.9ZM293.8,167c5.4,0,10.1-1,14.2-3,4.1-2.1,7.3-5,9.4-8.7,2.2-3.8,3.4-8.2,3.4-13.2s-1.1-9.4-3.4-13.1c-2.2-3.8-5.3-6.7-9.4-8.7-4.1-2.1-8.8-3.1-14.2-3.1h-17.8v50h17.8Z"/>
  <path class="cls-1" d="M400.4,151c0,.9,0,2.2-.2,3.9h-43.9c.8,4.1,2.8,7.4,6,9.8,3.3,2.4,7.3,3.5,12.2,3.5s11.2-2,15.2-6l7,8c-2.5,3-5.7,5.2-9.5,6.8-3.8,1.5-8.2,2.3-13,2.3s-11.6-1.2-16.3-3.6c-4.7-2.4-8.3-5.8-10.9-10.1-2.5-4.4-3.8-9.3-3.8-14.8s1.2-10.3,3.7-14.6c2.5-4.4,6-7.8,10.4-10.2,4.4-2.4,9.4-3.6,14.9-3.6s10.3,1.2,14.6,3.6c4.3,2.4,7.7,5.7,10.1,10.1,2.4,4.3,3.7,9.3,3.7,15ZM372.1,132.6c-4.2,0-7.8,1.2-10.7,3.7-2.9,2.4-4.6,5.7-5.2,9.8h31.8c-.6-4-2.3-7.3-5.1-9.8-2.9-2.5-6.4-3.7-10.7-3.7Z"/>
  <path class="cls-1" d="M465.6,151c0,.9,0,2.2-.2,3.9h-43.9c.8,4.1,2.8,7.4,6,9.8,3.3,2.4,7.3,3.5,12.2,3.5s11.2-2,15.2-6l7,8c-2.5,3-5.7,5.2-9.5,6.8s-8.2,2.3-13,2.3-11.6-1.2-16.3-3.6c-4.7-2.4-8.3-5.8-10.9-10.1-2.5-4.4-3.8-9.3-3.8-14.8s1.2-10.3,3.7-14.6c2.5-4.4,6-7.8,10.4-10.2,4.4-2.4,9.4-3.6,14.9-3.6s10.3,1.2,14.6,3.6c4.3,2.4,7.7,5.7,10.1,10.1,2.4,4.3,3.7,9.3,3.7,15ZM437.3,132.6c-4.2,0-7.8,1.2-10.7,3.7-2.9,2.4-4.6,5.7-5.2,9.8h31.8c-.6-4-2.3-7.3-5.1-9.8s-6.4-3.7-10.7-3.7Z"/>
  <path class="cls-1" d="M509.3,122.2c5.5,0,10.3,1.2,14.6,3.5,4.3,2.4,7.7,5.7,10.2,10s3.7,9.3,3.7,14.9-1.2,10.6-3.7,15c-2.4,4.3-5.8,7.6-10.2,10-4.3,2.4-9.1,3.5-14.6,3.5s-13.5-2.5-17.9-7.5v27h-13.1v-75.8h12.5v7.3c2.2-2.6,4.8-4.6,8-5.9,3.2-1.3,6.7-2,10.6-2ZM507.8,168c4.8,0,8.8-1.6,11.9-4.8,3.1-3.2,4.7-7.4,4.7-12.6s-1.6-9.4-4.7-12.6c-3.1-3.2-7-4.8-11.9-4.8s-6,.7-8.5,2.2c-2.5,1.4-4.5,3.4-6,6s-2.2,5.7-2.2,9.2.7,6.5,2.2,9.2,3.5,4.7,6,6.1c2.5,1.4,5.3,2.1,8.5,2.1Z"/>
  <path class="cls-1" d="M551.4,105.6h13.6v61.4h38.4v11.5h-52v-72.9Z"/>
  <path class="cls-2" d="M137.4,59.1l63,36.9c3.3,1.9,5,5.2,5,9v72.8c0,3.8-1.7,7.1-5,9l-40,22.9c-1.4,1-2,3.2-2,5v26.9c-26.5-15.4-53.1-30.7-79.7-46.1-5.1-2.9-10.2-5.9-15.3-8.8-3.3-1.9-5-5.2-5-9v-72.8c0-3.7,1.7-7.1,5-9l63-36.9c3.3-1.9,7.7-1.9,11,0ZM125,117.5c.3-.9.4-1.9.4-2.9,0-5.5-4.5-10-10-10s-10,4.5-10,10,4.5,10,10,10,5.1-1.1,6.9-2.8l27.5,16.8c-.3.9-.4,1.9-.4,2.9,0,5.5,4.5,10,10,10s10-4.5,10-10-4.5-10-10-10-5.1,1.1-6.9,2.8l-27.5-16.8ZM115.4,178.4c5.5,0,10-4.5,10-10s-.2-2-.4-2.9l25.5-15.6-4.8-2.9-23.3,14.3c-1.8-1.7-4.2-2.8-6.9-2.8-5.5,0-10,4.5-10,10s4.5,10,10,10Z"/>
</svg>